<?xml version="1.0" encoding="utf-8"?>
<!-- Generator: Adobe Illustrator 22.0.1, SVG Export Plug-In . SVG Version: 6.00 Build 0)  -->
<svg version="1.1" xmlns="http://www.w3.org/2000/svg" xmlns:xlink="http://www.w3.org/1999/xlink" x="0px" y="0px"
	 viewBox="0 0 595.3 841.9" style="enable-background:new 0 0 595.3 841.9;" xml:space="preserve">
<style type="text/css">
	.st0{display:none;fill:#FFFFFF;stroke:#5B7BBB;stroke-width:3;stroke-miterlimit:10;}
	.st1{fill:none;}
	.st2{font-family:'NoContinueRUSbyDaymarius';}
	.st3{font-size:36px;}
	.st4{letter-spacing:24;}
	.st5{fill:#FFFFFF;stroke:#FFFFFF;stroke-width:3;stroke-miterlimit:10;}
	.st6{fill:#FFFFFF;}
	.st7{fill:#5B7BBB;}
	.st8{fill:none;stroke:#FFFFFF;stroke-width:3;stroke-miterlimit:10;}
	.st9{display:none;}
	.st10{display:inline;fill:#F4EE76;}
	.st11{display:inline;fill:#D57662;}
</style>
<g id="Слой_5">
	<line class="st0" x1="330.3" y1="495" x2="-31" y2="661.7"/>
	<circle class="st0" cx="259" cy="533.4" r="59.9"/>
	<rect x="176" y="512.5" class="st1" width="313" height="127"/>
	<text transform="matrix(1 0 0 1 175.9711 538.298)" class="st2 st3 st4">МУЗЕИЧ</text>
	<rect x="178.9" y="302" class="st5" width="50.7" height="200.8"/>
	<polygon class="st5" points="229.1,385.4 296.1,502.8 412.4,302 180,302 	"/>
	<polygon class="st6" points="180,300.7 229.1,385.4 414.7,300.7 	"/>
	<rect x="364.7" y="302" class="st5" width="48.7" height="200.8"/>
	<polygon class="st6" points="296.1,505.7 229.6,439.2 229.1,387.4 	"/>
	<rect class="st7" width="595.3" height="841.9"/>
</g>
<g id="Слой_1">
	<path class="st6" d="M296.1,313.8"/>
</g>
<g id="Слой_6">
	<line class="st0" x1="330.4" y1="233.9" x2="-30.9" y2="400.6"/>
	<circle class="st0" cx="259.1" cy="272.3" r="59.9"/>
</g>
<g id="Слой_4">
	<line class="st0" x1="341.4" y1="221.3" x2="-85.2" y2="418.1"/>
	<circle class="st0" cx="257.3" cy="266.6" r="70.7"/>
	<g>
		<path class="st6" d="M160.9,541.4V511h10.9l3.1,15.5l3.1-15.5h10.9v30.5h-7.3v-18.1l-3.8,18.1H172l-3.8-18.1v18.1H160.9z"/>
		<path class="st6" d="M231.8,529.1h-4.3L221,522v-11h7.3v10l2.1,2.2h1.5V511h7.3v23.9l-6.6,6.6H221v-10.5h7.3v4.5h1.2l2.4-2.4
			V529.1z"/>
		<path class="st6" d="M289.6,541.4h-18.2v-6h10.9v-5l-1.3-1.3h-7.7v-6h7.7l1.3-1.3v-4.9h-10.9v-6h18.2v11l-3.9,4.2l3.9,4.2V541.4z"
			/>
		<path class="st6" d="M321.8,541.4V511H340v6h-10.9v6.2h9v6h-9v6.3H340v6H321.8z"/>
		<path class="st6" d="M383,541.4v-11.8l-3.8,11.8h-7.1V511h7.3v11.8L383,511h7.3v30.5H383z"/>
		<path class="st6" d="M433.5,511h7.3v30.5h-7.3v-12.3h-4.3l-6.6-7.1v-11h7.3v10l2.1,2.2h1.5V511z"/>
	</g>
	<rect x="162.6" y="262.4" class="st8" width="59.8" height="237.1"/>
	<polygon class="st8" points="221.9,361 301.1,499.5 438.3,262.4 163.9,262.4 	"/>
	<polygon class="st6" points="163.9,260.9 223.2,363.2 441.1,260.9 	"/>
	<rect x="382" y="262.4" class="st5" width="57.5" height="237.1"/>
	<polygon class="st6" points="301.1,503.2 222.5,424.1 221.9,359.2 	"/>
</g>
<g id="Слой_3" class="st9">
	<polygon class="st10" points="576.6,148.7 541,155.1 517.6,127.4 529.9,93.4 565.5,87 588.9,114.7 	"/>
	<polygon class="st11" points="587.9,105.2 547.1,115.9 517.4,85.9 528.6,45.2 569.4,34.5 599.1,64.5 	"/>
</g>
</svg>
